<svg id="Capa_1" enable-background="new 0 0 512.002 512.002" height="512" viewBox="0 0 512.002 512.002" width="512" xmlns="http://www.w3.org/2000/svg"><g><g><g><path d="m405.896 365.508c40.675-17.96 64.756-76.826 46.629-140.762-.82-2.894-4.403-3.929-6.587-1.861-5.686 5.385-13.462 11.333-23.583 15.694-13.979 6.023-22.39 4.691-35.987 7.532-17.461 3.648-39.675 13.38-51.609 27.618-25.806 30.788-4.434 83.671-2.79 87.595 10.593 4.748 43.269 17.721 73.927 4.184z" fill="#b3e59f"/><path d="m445.932 222.888c-4.641 4.391-10.674 9.155-18.232 13.129 5.93 53.238-16.784 99.027-51.804 114.491-16.035 7.08-32.616 6.904-46.307 4.449 1.167 3.406 2.088 5.667 2.381 6.366 10.592 4.748 43.268 17.721 73.926 4.185 40.675-17.96 64.757-76.828 46.628-140.765-.822-2.898-4.404-3.925-6.592-1.855z" fill="#95d6a4"/></g><g><path d="m126.797 390.818c-40.675-17.96-64.756-76.826-46.629-140.762.82-2.894 4.403-3.929 6.587-1.861 5.686 5.385 13.462 11.333 23.583 15.694 13.979 6.023 22.39 4.691 35.987 7.532 17.461 3.648 39.675 13.38 51.609 27.618 25.806 30.788 4.434 83.671 2.79 87.595-10.593 4.748-43.269 17.721-73.927 4.184z" fill="#b3e59f"/><path d="m197.934 299.038c-11.934-14.238-34.148-23.97-51.609-27.618-13.597-2.841-22.007-1.509-35.987-7.532-10.122-4.361-17.897-10.309-23.583-15.694-2.162-2.048-5.754-1.069-6.567 1.796-2.528 8.91-4.235 17.72-5.194 26.337 1.706.897 3.481 1.758 5.345 2.561 13.979 6.023 22.39 4.691 35.987 7.532 17.461 3.648 39.675 13.38 51.609 27.618 21.207 25.302 10.554 65.519 5.171 81.229 12.485-2.238 22.567-6.369 27.619-8.634 1.643-3.924 23.014-56.807-2.791-87.595z" fill="#95d6a4"/></g><g><g><path d="m246.346 91.537h-35v-66.537c0-9.665 7.835-17.5 17.5-17.5 9.665 0 17.5 7.835 17.5 17.5z" fill="#f9f6f6"/><path d="m321.346 91.537h-35v-66.537c0-9.665 7.835-17.5 17.5-17.5 9.665 0 17.5 7.835 17.5 17.5z" fill="#f9f6f6"/><g fill="#efe7e4"><path d="m306.174 7.672c.412 2.609.172 39.193.172 41.865 0 11.046-8.954 20-20 20v22h35v-66.537c0-8.874-6.61-16.187-15.172-17.328z"/><path d="m231.174 7.672c.412 2.609.172 39.193.172 41.865 0 11.046-8.954 20-20 20v22h35v-66.537c0-8.874-6.61-16.187-15.172-17.328z"/></g></g><g><path d="m266.346 456.567c-8.284 0-15-6.716-15-15v-165.255c0-8.284 6.716-15 15-15s15 6.716 15 15v165.256c0 8.284-6.715 14.999-15 14.999z" fill="#b3e59f"/></g><path d="m274.28 276.312h-15.867c-8.284 0-15-6.716-15-15v-43.098h45.867v43.098c0 8.284-6.716 15-15 15z" fill="#f3d9a6"/><path d="m274.28 218.214v28.098c0 8.284-6.716 15-15 15h-15.867c0 8.284 6.716 15 15 15h15.867c8.284 0 15-6.716 15-15v-43.098z" fill="#f0cc87"/><path d="m266.346 240.537c-40.593 0-73.5-32.907-73.5-73.5v-72.5c0-5.523 4.477-10 10-10h127c5.523 0 10 4.477 10 10v72.5c0 40.593-32.907 73.5-73.5 73.5z" fill="#f7e782"/><path d="m329.846 84.537h-30c5.523 0 10 4.477 10 10v72.5c0 35.452-25.102 65.037-58.5 71.963 4.843 1.004 9.859 1.536 15 1.536 40.593 0 73.5-32.907 73.5-73.5v-72.5c0-5.522-4.477-9.999-10-9.999z" fill="#f4dd46"/><path d="m329.846 84.537h-127c-5.523 0-10 4.477-10 10v25h147v-25c0-5.523-4.477-10-10-10z" fill="#f3d9a6"/><path d="m336.917 87.466c-1.864-1.864-4.421-2.932-7.071-2.929h-30c5.523 0 10 4.477 10 10v25h30v-25c0-2.761-1.119-5.261-2.929-7.071z" fill="#f0cc87"/></g><path d="m419.266 504.5c-10.9-23.85-34.98-40.43-62.92-40.43-7.421 0-14.567 1.173-21.266 3.342-4.525 1.465-9.516-.229-12.264-4.11-12.522-17.689-33.144-29.231-56.47-29.231-25.428 0-47.648 13.722-59.658 34.163-3.126 5.321-9.887 7.096-15.214 3.98-8.847-5.176-19.142-8.143-30.129-8.143-26.24 0-48.52 16.91-56.55 40.43h314.471z" fill="#ce9775"/><g><path d="m236.346 449.07c23.326 0 43.948 11.543 56.47 29.231 2.748 3.882 7.739 5.575 12.264 4.11 6.699-2.168 13.845-3.342 21.266-3.342 21.599 0 40.886 9.914 53.565 25.43h39.354c-10.9-23.85-34.98-40.43-62.92-40.43-7.421 0-14.567 1.173-21.266 3.342-4.525 1.465-9.516-.229-12.264-4.11-12.522-17.689-33.144-29.231-56.47-29.231-17.179 0-32.889 6.27-44.98 16.636 4.826-1.065 9.836-1.636 14.981-1.636z" fill="#c6855b"/></g></g><path d="m452.39 497h-335.891c9.292-15.545 26.202-25.43 44.848-25.43 9.274 0 18.382 2.461 26.341 7.117 8.847 5.176 20.271 2.19 25.467-6.655 11.04-18.79 31.421-30.462 53.191-30.462 19.973 0 38.794 9.744 50.348 26.064 4.688 6.624 13.004 9.4 20.694 6.913 6.105-1.976 12.483-2.978 18.958-2.978 12.145 0 23.893 3.527 33.975 10.2 3.455 2.286 8.107 1.339 10.394-2.115 2.286-3.454 1.339-8.108-2.115-10.394-12.545-8.303-27.156-12.691-42.254-12.691-8.044 0-15.977 1.247-23.577 3.707-1.392.449-2.967-.087-3.832-1.309-9.899-13.984-24.093-24.081-40.089-29.007 0-9.154 0-26.073-.001-45.493 14.781-3.605 29.122-8.696 42.737-15.138 19.902 8.417 52.727 13.906 77.341 3.039 22.198-9.801 39.744-30.221 49.405-57.497 9.865-27.851 10.366-60.584 1.41-92.171-1.112-3.923-4.12-6.909-8.047-7.988-3.9-1.072-7.979-.053-10.913 2.727-6.471 6.128-13.668 10.923-21.394 14.251-13.036 5.617-21.426 4.336-34.553 7.079-17.09 3.57-41.964 13.606-55.823 30.141-23.57 28.12-12.576 70.836-6.642 88.168-12.109 5.501-23.557 9.297-33.522 11.918-.001-37.069-.003-77.878-.007-90.554 4.852-4.13 7.938-10.276 7.938-17.132v-19.227c29.623-12.056 50.568-41.143 50.568-75.046v-72.5c-.021-9.995-8.461-18.045-18.5-17.5v-52.037c0-13.785-11.215-25-25-25s-25 11.215-25 25v52.037h-25v-52.037c0-13.785-11.215-25-25-25s-25 11.215-25 25v52.037c-9.964-.338-18.482 7.343-18.5 17.5v72.5c0 33.9 20.943 62.985 50.562 75.044v19.229c0 6.688 2.956 12.916 7.94 17.148v115.848c-9.969-2.622-21.421-6.419-33.534-11.923 2.228-6.538 5.189-16.745 6.743-28.489 3.268-24.7-1.358-45.334-13.376-59.673-13.859-16.535-38.733-26.571-55.823-30.141-13.181-2.754-21.511-1.459-34.553-7.079-7.724-3.328-14.922-8.123-21.394-14.251-2.935-2.778-7.012-3.798-10.913-2.727-3.926 1.079-6.935 4.065-8.047 7.987-8.956 31.588-8.455 64.322 1.41 92.172 13.943 39.364 43.762 64.157 82.087 64.157 17.755 0 33.852-5.135 44.66-9.7 13.615 6.442 27.956 11.534 42.738 15.138v20.203c-18.07 5.585-33.817 17.757-43.626 34.453-1.031 1.757-3.211 2.329-4.96 1.306-10.254-5.999-21.982-9.17-33.916-9.17-26.948 0-51.09 16.038-61.681 40.43h-46.271c-4.142 0-7.5 3.358-7.5 7.5s3.358 7.5 7.5 7.5h51.382c.008 0 .016.002.024.002s.017-.002.025-.002h347.568c4.142 0 7.5-3.358 7.5-7.5s-3.358-7.499-7.5-7.499zm-111.882-218.454c10.664-12.723 31.487-21.771 47.394-25.094 4.395-.918 8.301-1.379 12.079-1.825 7.479-.883 15.212-1.796 25.342-6.161 7.634-3.289 14.817-7.738 21.418-13.258 6.6 26.904 5.73 54.281-2.55 77.656-8.268 23.342-22.944 40.667-41.325 48.783-9.357 4.131-27.697 9.028-53.461 1.235 7.732-4.568 15.146-9.608 22.201-15.071.516-.319 1-.688 1.429-1.126.815-.643 1.641-1.272 2.445-1.927 4.704-3.826 9.221-7.844 13.566-12.026 3.345.722 6.737 1.093 10.143 1.093.759 0 1.52-.018 2.28-.054 11.208-.534 19.837-4.879 25.102-8.43 3.435-2.316 4.341-6.977 2.024-10.411-2.316-3.435-6.977-4.341-10.412-2.024-3.409 2.299-8.826 5.071-15.766 5.757 10.214-11.776 19.18-24.679 26.801-38.614 1.988-3.634.653-8.191-2.981-10.179-3.633-1.988-8.191-.653-10.179 2.981-9.787 17.896-21.948 33.96-36.256 47.956.022-.186.049-.372.07-.558 1.179-10.464.979-21.071-.594-31.525-.616-4.097-4.436-6.917-8.532-6.301s-6.917 4.436-6.301 8.532c1.378 9.161 1.554 18.452.521 27.616-.695 6.176-1.948 12.321-3.726 18.301-8.427 6.429-16.942 11.852-25.3 16.421-1.885-5.823-4.185-14.233-5.435-23.678-2.739-20.71.626-36.883 10.003-48.069zm-74.162 148.024c-2.517 0-5.019.126-7.498.373v-23.047c0-.015 0-.031 0-.046v-120.04h14.993c.003 18.134.005 59.68.006 94.747v.018c0 20.17.001 38.183.001 48.371-2.481-.245-4.983-.376-7.502-.376zm15.432-165.26c0 4.136-3.364 7.5-7.5 7.5h-15.87c-4.097.016-7.518-3.425-7.5-7.5v-14.766c5.001.969 10.158 1.494 15.438 1.494 5.277 0 10.433-.524 15.432-1.492zm12.068-236.31c0-5.514 4.486-10 10-10s10 4.486 10 10v52.037h-20zm-75 0c0-5.514 4.486-10 10-10s10 4.486 10 10v52.037h-20zm-18.5 142.037v-40h71.95c4.142 0 7.5-3.358 7.5-7.5s-3.358-7.5-7.5-7.5h-71.95v-17.5c0-1.378 1.122-2.5 2.5-2.5h127c1.378 0 2.5 1.122 2.5 2.5v17.5h-25c-4.142 0-7.5 3.358-7.5 7.5s3.358 7.5 7.5 7.5h25v40c0 36.393-29.607 66-66 66s-66-29.607-66-66zm1.841 184.889c-1.249 9.444-3.549 17.853-5.434 23.676-8.358-4.57-16.874-9.994-25.302-16.423-1.777-5.979-3.03-12.122-3.725-18.298-1.032-9.164-.856-18.455.521-27.615.616-4.096-2.205-7.916-6.301-8.532-4.098-.618-7.917 2.205-8.532 6.301-1.573 10.455-1.773 21.062-.595 31.525.021.186.048.372.07.558-14.31-13.995-26.469-30.059-36.251-47.954-1.987-3.635-6.543-4.97-10.178-2.984-3.635 1.987-4.971 6.544-2.984 10.178 7.618 13.936 16.582 26.839 26.796 38.615-6.94-.686-12.355-3.458-15.764-5.757-3.435-2.317-8.096-1.411-10.412 2.023s-1.41 8.096 2.023 10.412c5.265 3.551 13.894 7.897 25.104 8.431.76.036 1.52.054 2.28.054 3.406 0 6.797-.372 10.142-1.093 4.347 4.183 8.865 8.202 13.571 12.027.801.651 1.622 1.277 2.433 1.917.435.445.926.821 1.451 1.143 7.051 5.46 14.462 10.497 22.189 15.062-25.765 7.794-44.107 2.896-53.464-1.235-18.38-8.116-33.057-25.441-41.325-48.784-8.28-23.375-9.149-50.751-2.55-77.656 6.602 5.521 13.785 9.969 21.418 13.258 10.13 4.365 17.864 5.278 25.342 6.161 3.778.446 7.684.907 12.079 1.825 15.907 3.323 36.73 12.372 47.394 25.094 9.379 11.187 12.743 27.36 10.004 48.071z"/></g></svg>