<svg height="512pt" viewBox="0 -14 512.001 512" width="512pt" xmlns="http://www.w3.org/2000/svg"><path d="m468.222656 242.144531-68.199218 76.949219 26.988281 5.511719c-31.371094 64.902343-97.90625 107.351562-171.011719 107.351562-104.660156 0-189.808594-85.148437-189.808594-189.808593 0-9.292969.667969-18.484376 1.972656-27.515626l-24.386718 27.515626-16.9375-50.761719c-3.617188 16.484375-5.484375 33.476562-5.484375 50.761719 0 62.675781 24.40625 121.597656 68.726562 165.917968 44.316407 44.316406 103.242188 68.726563 165.917969 68.726563 49.054688 0 96.046875-14.984375 135.894531-43.335938 35.695313-25.398437 63.222657-59.679687 80.160157-99.644531l28.71875 5.867188zm0 0" fill="#57a4ff"/><path d="m111.976562 165.199219-26.988281-5.511719c31.371094-64.902344 97.90625-107.351562 171.011719-107.351562 104.660156 0 189.808594 85.148437 189.808594 189.8125 0 9.289062-.671875 18.476562-1.972656 27.511718l24.386718-27.515625 16.9375 50.761719c3.617188-16.484375 5.484375-33.476562 5.484375-50.757812 0-62.675782-24.40625-121.601563-68.726562-165.921876-44.316407-44.316406-103.242188-68.726562-165.917969-68.726562-49.054688 0-96.046875 14.988281-135.894531 43.335938-35.695313 25.398437-63.21875 59.679687-80.160157 99.644531l-28.71875-5.867188 32.550782 97.535157zm0 0" fill="#57a4ff"/><g fill="#d7fc7e"><path d="m269.585938 277.589844-13.589844 13.585937-13.585938-13.585937c-43.324218-43.328125-43.324218-113.570313 0-156.894532l13.585938-13.589843 13.589844 13.589843c43.324218 43.324219 43.324218 113.566407 0 156.894532zm0 0"/><path d="m234.785156 308.367188v17.488281h-17.492187c-55.765625 0-100.972657-45.203125-100.972657-100.972657v-17.488281h17.488282c55.769531 0 100.976562 45.207031 100.976562 100.972657zm0 0"/><path d="m277.207031 308.367188v17.488281h17.492188c55.765625 0 100.972656-45.203125 100.972656-100.972657v-17.488281h-17.488281c-55.765625 0-100.976563 45.207031-100.976563 100.972657zm0 0"/></g><path d="m269.585938 277.589844-13.589844 13.585937-13.585938-13.585937c-2.710937-2.710938-5.253906-5.53125-7.625-8.4375v114.992187h42.417969v-114.984375c-2.371094 2.90625-4.910156 5.71875-7.617187 8.429688zm0 0" fill="#ffb655"/><path d="m120.082031 408.066406c-44.320312-44.320312-68.726562-103.242187-68.726562-165.917968 0-2.929688.074219-5.84375.179687-8.753907l-7.757812 8.753907-16.9375-50.761719c-3.617188 16.484375-5.484375 33.476562-5.484375 50.761719 0 62.675781 24.40625 121.597656 68.726562 165.917968 44.316407 44.316406 103.242188 68.726563 165.917969 68.726563 5.042969 0 10.0625-.167969 15.058594-.484375-57.054688-3.5625-110.199219-27.464844-150.976563-68.242188zm0 0" fill="#006df0"/><path d="m41.78125 146.273438c-.625 1.394531-1.238281 2.796874-1.835938 4.207031l-28.71875-5.871094 32.550782 97.539063 21.792968-24.589844zm0 0" fill="#006df0"/><path d="m69.945312 150.480469c16.9375-39.964844 44.464844-74.246094 80.160157-99.644531 35.75-25.433594 77.253906-40.101563 120.835937-42.851563-4.953125-.308594-9.933594-.484375-14.941406-.484375-49.054688 0-96.046875 14.988281-135.894531 43.335938-34.007813 24.199218-60.59375 56.460937-77.679688 94.019531zm0 0" fill="#006df0"/><path d="m270.996094 122.140625c-.46875-.484375-.933594-.96875-1.410156-1.445313l-13.589844-13.589843-13.585938 13.589843c-43.324218 43.324219-43.324218 113.566407 0 156.894532l13.585938 13.585937 13.589844-13.585937c.476562-.480469.941406-.964844 1.410156-1.449219-41.433594-42.945313-41.433594-111.054687 0-154zm0 0" fill="#55e072"/><path d="m146.320312 224.882812v-16.71875c-4.097656-.503906-8.273437-.769531-12.507812-.769531h-17.492188v17.488281c0 55.769532 45.207032 100.976563 100.976563 100.976563h17.488281v-.773437c-49.863281-6.160157-88.464844-48.671876-88.464844-100.203126zm0 0" fill="#55e072"/><path d="m307.207031 308.367188c0-51.53125 38.601563-94.039063 88.464844-100.203126v-.769531h-17.492187c-55.765626 0-100.972657 45.207031-100.972657 100.972657v17.488281h17.492188c4.234375 0 8.410156-.261719 12.507812-.769531zm0 0" fill="#55e072"/><path d="m275.996094 291.175781 1.207031-1.207031v-20.808594c-2.371094 2.90625-4.910156 5.71875-7.617187 8.429688l-3.589844 3.585937zm0 0" fill="#ff7956"/><path d="m242.410156 277.589844c-2.710937-2.710938-5.253906-5.53125-7.625-8.4375v114.992187h20v-94.179687zm0 0" fill="#ff7956"/><path d="m284.703125 391.644531v-58.289062h9.996094c59.8125 0 108.472656-48.660157 108.472656-108.472657v-24.988281h-24.988281c-27.574219 0-52.78125 10.34375-71.941406 27.351563 9.378906-38.703125-.816407-81.316406-31.351563-111.855469l-18.894531-18.890625-18.890625 18.890625c-30.128907 30.128906-40.867188 72.582031-31.355469 111.855469-19.15625-17.007813-44.363281-27.351563-71.9375-27.351563h-24.992188v24.988281c0 59.816407 48.660157 108.476563 108.476563 108.476563h9.988281v58.289063h57.417969zm-15-15h-27.417969v-88.574219l6.210938 6.210938v69.863281h15v-69.863281l6.207031-6.203125zm108.480469-161.75h9.988281v9.988281c0 51.335938-41.597656 93.136719-92.855469 93.472657l57.367188-57.363281-10.605469-10.609376-57.367187 57.367188c.332031-51.257812 42.136718-92.855469 93.472656-92.855469zm-130.472656-88.898437 8.285156-8.28125 8.285156 8.28125c38.632812 38.632812 42.527344 103.761718-.785156 147.074218v-98.679687h-15v98.679687c-43.007813-43.011718-39.742188-108.117187-.785156-147.074218zm-123.890626 98.886718v-9.988281h9.992188c51.332031 0 93.136719 41.59375 93.46875 92.855469l-57.363281-57.367188-10.605469 10.609376 57.363281 57.363281c-51.257812-.335938-92.855469-42.136719-92.855469-93.472657zm0 0"/><path d="m471.226562 227.449219-85.429687 96.390625 30 6.132812c-31.84375 57.703125-93.535156 94.484375-159.796875 94.484375-98.050781 0-179.808594-79.714843-182.25-177.699219l-14.996094.371094c2.65625 106.484375 89.929688 192.328125 197.25 192.328125 75.222656 0 145-43.800781 177.761719-111.585937l4.195313-8.679688-23.707032-4.847656 50.96875-57.503906 24.324219 72.890625-22-4.496094-2.398437 5.652344c-34.492188 81.386719-115.230469 138.40625-209.148438 138.40625-125.542969 0-227.144531-101.59375-227.144531-227.144531h-15c0 133.832031 108.304687 242.144531 242.144531 242.144531 97.925781 0 182.4375-58.160157 220.488281-141.921875l35.511719 7.257812zm0 0"/><path d="m126.203125 160.453125-30-6.128906c31.847656-57.703125 93.535156-94.488281 159.796875-94.488281 98.050781 0 179.808594 79.71875 182.25 177.699218l14.996094-.371094c-2.660156-106.6875-90.148438-192.328124-197.246094-192.328124-75.222656 0-145 43.800781-177.765625 111.585937l-4.195313 8.683594 23.707032 4.84375-50.964844 57.503906-24.328125-72.890625 22.003906 4.496094 2.394531-5.652344c34.492188-81.390625 115.230469-138.40625 209.148438-138.40625 125.542969 0 227.144531 101.59375 227.144531 227.144531h15c0-133.832031-108.300781-242.144531-242.144531-242.144531-97.925781 0-182.433594 58.160156-220.484375 141.921875l-35.515625-7.257813 40.773438 122.179688zm0 0"/><path d="m256.242188 462.394531h-.246094v-15h.246094c32.816406 0 64.433593-7.746093 93.976562-23.019531 23.566406-12.1875 44.175781-28.425781 61.257812-48.273438l11.371094 9.785157c-18.339844 21.308593-40.460937 38.742187-65.742187 51.8125-31.246094 16.15625-66.125 24.695312-100.863281 24.695312zm173.171874-84.515625-11.824218-9.234375c2.953125-3.78125 5.8125-7.722656 8.496094-11.707031l12.445312 8.371094c-2.878906 4.28125-5.949219 8.507812-9.117188 12.570312zm14.691407-21.292968-12.824219-7.777344c2.484375-4.105469 4.863281-8.355469 7.066406-12.632813l13.335938 6.863281c-2.359375 4.585938-4.910156 9.144532-7.578125 13.546876zm0 0" fill="#fff"/><path d="m458.976562 212.113281c-6.371093-43.730469-26.398437-83.507812-57.917968-115.023437-.890625-.894532-1.792969-1.777344-2.695313-2.652344l10.410157-10.796875c.972656.9375 1.933593 1.882813 2.890624 2.839844 33.820313 33.820312 55.3125 76.515625 62.15625 123.472656zm-67.714843-124.21875c-3.613281-3.175781-7.378907-6.261719-11.195313-9.171875l9.097656-11.929687c4.09375 3.125 8.128907 6.433593 12.003907 9.839843zm-19-14.839843c-3.949219-2.730469-8.050781-5.351563-12.183594-7.796876l7.628906-12.914062c4.4375 2.621094 8.839844 5.4375 13.082031 8.371094zm0 0" fill="#fff"/></svg>